<?xml version="1.0" encoding="utf-8"?>
<!-- Generator: Adobe Illustrator 23.0.2, SVG Export Plug-In . SVG Version: 6.00 Build 0)  -->
<svg version="1.1" id="Слой_1" xmlns="http://www.w3.org/2000/svg" xmlns:xlink="http://www.w3.org/1999/xlink" x="0px" y="0px"
	 viewBox="0 0 44.56 38.26" style="enable-background:new 0 0 44.56 38.26;" xml:space="preserve">
<style type="text/css">
	.st0{clip-path:url(#SVGID_2_);}
</style>
<g>
	<defs>
		<rect id="SVGID_1_" y="0" width="44.56" height="38.26"/>
	</defs>
	<clipPath id="SVGID_2_">
		<use xlink:href="#SVGID_1_"  style="overflow:visible;"/>
	</clipPath>
	<path class="st0" d="M23.3,35.59c-1.17,1.59-2.99,2.56-4.96,2.66s-3.88-0.7-5.2-2.16L1.31,22.96c-1.88-2.08-1.71-5.3,0.37-7.18
		c2.09-1.88,5.3-1.71,7.18,0.37l8.37,9.29c0.12,0.14,0.3,0.21,0.49,0.2c0.19-0.01,0.36-0.1,0.47-0.25l17.2-23.33
		c1.67-2.26,4.85-2.74,7.11-1.08c2.26,1.67,2.74,4.85,1.07,7.11L23.3,35.59z"/>
</g>
</svg>
