<?xml version="1.0" encoding="utf-8"?>
<!-- Generator: Adobe Illustrator 23.0.2, SVG Export Plug-In . SVG Version: 6.00 Build 0)  -->
<svg version="1.1" id="Слой_1" xmlns="http://www.w3.org/2000/svg" xmlns:xlink="http://www.w3.org/1999/xlink" x="0px" y="0px"
	 viewBox="0 0 500.05 512" style="enable-background:new 0 0 500.05 512;" xml:space="preserve">
<style type="text/css">
	.st0{clip-path:url(#SVGID_2_);}
</style>
<g>
	<defs>
		<rect id="SVGID_1_" width="500.05" height="512"/>
	</defs>
	<clipPath id="SVGID_2_">
		<use xlink:href="#SVGID_1_"  style="overflow:visible;"/>
	</clipPath>
	<path class="st0" d="M323.97,74.51c-6.95-26.03-23.55-47.73-46.74-61.12C262.06,4.63,244.78,0,227.27,0
		c-35.95,0-69.37,19.21-87.23,50.14L76.76,159.75c-0.01,0.01-0.01,0.02-0.02,0.03c-0.01,0.01-0.01,0.02-0.02,0.03L13.43,269.43
		c-27.69,47.96-11.2,109.5,36.76,137.19C65.36,415.37,82.63,420,100.15,420c32.79,0,63.56-15.87,82.32-42.46
		c0.17-0.24,0.33-0.5,0.48-0.75l131.04-226.2C327.36,127.5,330.9,100.48,323.97,74.51 M165.87,366.37
		C150.83,387.43,126.3,400,100.15,400c-14.01,0-27.82-3.7-39.95-10.7c-38.41-22.17-51.61-71.46-29.44-109.87l58.3-100.98l21.65,12.5
		c0,0,0,0,0,0c0,0,0,0,0,0l117.48,67.83L165.87,366.37z M296.68,140.56l-58.46,100.91l-108.85-62.85l27.98-48.46
		c2.76-4.78,1.12-10.9-3.66-13.66c-4.78-2.76-10.9-1.12-13.66,3.66l-27.98,48.46l-12.99-7.5l58.3-100.98
		C171.65,35.38,198.44,20,227.27,20c14.01,0,27.83,3.7,39.96,10.71c18.55,10.71,31.84,28.1,37.42,48.96
		C310.2,100.47,307.37,122.1,296.68,140.56"/>
	<path class="st0" d="M456.28,342.82C431.86,335.84,399.66,332,365.6,332c-34.05,0-66.25,3.84-90.67,10.82
		c-29.01,8.29-43.74,19.96-43.77,34.69c0,0.02,0,0.03,0,0.05v88.89c0,14.78,14.71,26.47,43.7,34.76c24.37,6.96,56.6,10.8,90.74,10.8
		c34.14,0,66.37-3.84,90.74-10.8c29-8.29,43.7-19.98,43.7-34.76v-88.83c0-0.02,0-0.04,0-0.06
		C500.05,362.81,485.32,351.12,456.28,342.82 M280.43,362.05c22.68-6.48,52.93-10.05,85.18-10.05c32.25,0,62.5,3.57,85.18,10.05
		c24.11,6.89,29.24,14.29,29.27,15.5c0,0,0,0.01,0,0.01v0.02c-0.04,1.22-5.18,8.61-29.27,15.49c-22.68,6.48-52.93,10.05-85.18,10.05
		c-32.25,0-62.5-3.57-85.18-10.05c-24.18-6.91-29.27-14.33-29.27-15.51C251.16,376.38,256.25,368.96,280.43,362.05 M480.05,466.45
		c0,1.43-5.2,8.67-29.2,15.53C428.22,488.44,397.94,492,365.6,492c-32.34,0-62.61-3.56-85.25-10.03c-24-6.86-29.2-14.1-29.2-15.53
		v-63.32c6.4,3.4,14.33,6.46,23.77,9.16c24.42,6.98,56.62,10.82,90.67,10.82c34.05,0,66.26-3.84,90.67-10.82
		c9.45-2.7,17.37-5.76,23.77-9.16v24.96c-14.35,7.1-32.25,12.85-52.21,16.73c-5.42,1.05-8.96,6.3-7.91,11.73
		c0.93,4.78,5.11,8.09,9.8,8.09c0.63,0,1.28-0.06,1.92-0.18c17.81-3.46,34.24-8.36,48.39-14.38V466.45z"/>
	<path class="st0" d="M168.71,90.49c-4.78-2.76-10.9-1.12-13.66,3.66l-0.16,0.28c-2.76,4.78-1.12,10.9,3.66,13.66
		c1.57,0.91,3.29,1.34,4.99,1.34c3.46,0,6.82-1.79,8.67-5l0.16-0.28C175.13,99.36,173.49,93.25,168.71,90.49"/>
	<path class="st0" d="M409.74,457.96c-0.55-5.49-5.44-9.5-10.95-8.95l-0.23,0.02c-5.5,0.52-9.53,5.4-9.01,10.9
		c0.49,5.18,4.85,9.06,9.94,9.06c0.32,0,0.64-0.01,0.95-0.04l0.33-0.03C406.28,468.36,410.29,463.46,409.74,457.96"/>
</g>
</svg>
