<svg version="1.1" id="Слой_1" xmlns="http://www.w3.org/2000/svg" xmlns:xlink="http://www.w3.org/1999/xlink" x="0" y="0" viewBox="0 0 500.05 512" xml:space="preserve"><style>.st0{clip-path:url(#SVGID_2_)}</style><defs><path id="SVGID_1_" d="M0 0h500.05v512H0z"/></defs><clipPath id="SVGID_2_"><use xlink:href="#SVGID_1_" overflow="visible"/></clipPath><path class="st0" d="M323.97 74.51c-6.95-26.03-23.55-47.73-46.74-61.12A100.051 100.051 0 00227.27 0c-35.95 0-69.37 19.21-87.23 50.14L76.76 159.75c-.01.01-.01.02-.02.03-.01.01-.01.02-.02.03L13.43 269.43c-27.69 47.96-11.2 109.5 36.76 137.19A100.117 100.117 0 00100.15 420c32.79 0 63.56-15.87 82.32-42.46.17-.24.33-.5.48-.75l131.04-226.2c13.37-23.09 16.91-50.11 9.98-76.08m-158.1 291.86C150.83 387.43 126.3 400 100.15 400c-14.01 0-27.82-3.7-39.95-10.7-38.41-22.17-51.61-71.46-29.44-109.87l58.3-100.98 21.65 12.5 117.48 67.83-62.32 107.59zm130.81-225.81l-58.46 100.91-108.85-62.85 27.98-48.46c2.76-4.78 1.12-10.9-3.66-13.66s-10.9-1.12-13.66 3.66l-27.98 48.46-12.99-7.5 58.3-100.98C171.65 35.38 198.44 20 227.27 20c14.01 0 27.83 3.7 39.96 10.71 18.55 10.71 31.84 28.1 37.42 48.96 5.55 20.8 2.72 42.43-7.97 60.89m159.6 202.26C431.86 335.84 399.66 332 365.6 332c-34.05 0-66.25 3.84-90.67 10.82-29.01 8.29-43.74 19.96-43.77 34.69v88.94c0 14.78 14.71 26.47 43.7 34.76 24.37 6.96 56.6 10.8 90.74 10.8 34.14 0 66.37-3.84 90.74-10.8 29-8.29 43.7-19.98 43.7-34.76v-88.89c.01-14.75-14.72-26.44-43.76-34.74m-175.85 19.23c22.68-6.48 52.93-10.05 85.18-10.05 32.25 0 62.5 3.57 85.18 10.05 24.11 6.89 29.24 14.29 29.27 15.5v.03c-.04 1.22-5.18 8.61-29.27 15.49-22.68 6.48-52.93 10.05-85.18 10.05-32.25 0-62.5-3.57-85.18-10.05-24.18-6.91-29.27-14.33-29.27-15.51 0-1.18 5.09-8.6 29.27-15.51m199.62 104.4c0 1.43-5.2 8.67-29.2 15.53-22.63 6.46-52.91 10.02-85.25 10.02s-62.61-3.56-85.25-10.03c-24-6.86-29.2-14.1-29.2-15.53v-63.32c6.4 3.4 14.33 6.46 23.77 9.16 24.42 6.98 56.62 10.82 90.67 10.82 34.05 0 66.26-3.84 90.67-10.82 9.45-2.7 17.37-5.76 23.77-9.16v24.96c-14.35 7.1-32.25 12.85-52.21 16.73-5.42 1.05-8.96 6.3-7.91 11.73a9.993 9.993 0 009.8 8.09c.63 0 1.28-.06 1.92-.18 17.81-3.46 34.24-8.36 48.39-14.38v16.38z"/><path class="st0" d="M168.71 90.49c-4.78-2.76-10.9-1.12-13.66 3.66l-.16.28c-2.76 4.78-1.12 10.9 3.66 13.66a9.92 9.92 0 004.99 1.34c3.46 0 6.82-1.79 8.67-5l.16-.28c2.76-4.79 1.12-10.9-3.66-13.66m241.03 367.47c-.55-5.49-5.44-9.5-10.95-8.95l-.23.02c-5.5.52-9.53 5.4-9.01 10.9.49 5.18 4.85 9.06 9.94 9.06.32 0 .64-.01.95-.04l.33-.03c5.51-.56 9.52-5.46 8.97-10.96"/></svg>